<?xml version="1.0" standalone="no"?>
<!DOCTYPE svg PUBLIC "-//W3C//DTD SVG 20010904//EN"
 "http://www.w3.org/TR/2001/REC-SVG-20010904/DTD/svg10.dtd">
<svg version="1.0" xmlns="http://www.w3.org/2000/svg"
 width="349.000000pt" height="349.000000pt" viewBox="0 0 349.000000 349.000000"
 preserveAspectRatio="xMidYMid meet">
<metadata>
Created by potrace 1.14, written by Peter Selinger 2001-2017
</metadata>
<g transform="translate(0.000000,349.000000) scale(0.100000,-0.100000)"
fill="#000000" stroke="none">
<path d="M341 2772 c-6 -11 -11 -38 -11 -60 0 -34 -4 -41 -40 -61 -22 -12 -40
-25 -41 -29 0 -4 -2 -15 -4 -24 -2 -10 1 -20 5 -23 5 -3 7 -12 3 -20 -3 -8 0
-15 6 -15 20 0 12 -30 -14 -52 -17 -14 -21 -24 -14 -29 12 -7 -3 -47 -16 -41
-3 1 -13 -4 -21 -13 -9 -8 -11 -16 -5 -16 6 -1 17 -2 24 -3 6 -1 20 2 31 7 17
8 35 -4 36 -23 0 -11 -57 -39 -64 -32 -4 4 -11 7 -14 8 -4 0 -15 4 -25 9 -11
4 -23 3 -30 -4 -8 -8 -3 -20 22 -45 20 -21 29 -36 22 -40 -15 -9 -14 -43 1
-48 23 -8 -4 -28 -38 -28 -28 0 -35 -4 -32 -17 4 -21 43 -32 86 -22 37 8 52
-6 27 -25 -11 -8 -35 -11 -61 -8 -39 3 -44 2 -44 -16 0 -21 18 -32 52 -32 20
0 21 -15 2 -65 -5 -13 -2 -16 12 -13 11 2 21 14 24 28 3 14 12 26 20 28 8 2
23 11 32 19 17 15 18 14 18 -5 0 -11 -5 -24 -11 -28 -18 -10 12 -24 31 -14 28
15 41 -3 38 -56 -2 -40 0 -49 15 -52 9 -2 17 2 17 8 0 15 50 60 66 60 25 0 29
1 44 14 8 7 23 16 33 19 9 4 17 13 17 22 0 8 9 15 20 15 11 0 20 5 20 10 0 6
8 10 18 10 13 0 18 9 20 31 3 38 10 51 23 44 5 -4 12 1 15 9 6 16 29 17 52 3
15 -10 32 0 32 19 0 13 12 18 33 15 4 0 7 11 7 25 0 22 38 73 55 74 3 0 10 0
16 0 5 0 8 4 4 9 -7 12 22 41 42 41 10 0 13 6 9 16 -4 12 -2 15 9 11 8 -4 18
0 22 8 5 7 20 16 34 20 l27 7 -1 -79 c0 -43 3 -85 7 -93 12 -28 -16 -49 -69
-51 -30 -2 -59 -10 -74 -21 -21 -16 -17 -24 11 -19 4 0 28 2 53 3 25 0 45 5
45 10 0 4 5 8 10 8 6 0 10 -9 10 -21 0 -21 -21 -49 -38 -49 -5 0 -15 -6 -21
-14 -7 -8 -28 -22 -47 -31 -22 -10 -39 -28 -46 -46 -9 -26 -19 -34 -40 -30 -5
0 -8 -3 -8 -9 0 -5 -15 -16 -32 -24 -34 -14 -67 -44 -105 -94 -27 -35 -32 -62
-8 -42 8 7 15 19 15 26 0 8 7 14 15 14 7 0 18 6 22 13 4 6 32 24 61 40 52 27
92 60 92 75 0 12 61 62 76 62 8 0 14 5 14 10 0 6 7 10 15 10 8 0 19 9 25 20 6
11 17 20 24 20 8 0 16 7 20 15 5 15 45 21 47 8 0 -5 2 -17 4 -28 2 -11 -1 -23
-8 -27 -9 -5 -9 -10 1 -20 9 -9 12 -9 12 1 0 7 5 9 10 6 6 -3 10 -1 10 6 0 10
3 10 12 1 19 -19 28 -14 28 18 0 17 -4 30 -9 30 -5 0 -23 12 -40 27 -28 25
-31 33 -31 88 0 63 -10 92 -29 81 -7 -5 -11 6 -11 34 0 23 4 39 9 35 15 -9 25
16 22 54 -1 19 3 38 10 42 6 4 8 12 5 18 -8 13 -66 15 -66 2 0 -5 -13 -14 -30
-21 -16 -7 -30 -16 -30 -21 0 -5 -3 -8 -7 -7 -5 2 -17 -6 -28 -17 -12 -11 -35
-31 -52 -45 -17 -13 -29 -28 -27 -32 3 -4 1 -8 -4 -8 -4 0 -26 -15 -47 -34
-39 -35 -75 -43 -75 -18 0 7 4 11 9 7 6 -3 15 4 21 15 6 11 15 18 21 15 8 -5
10 4 9 33 -1 4 -13 6 -28 5 -15 -1 -21 0 -14 3 17 8 15 41 -3 48 -8 3 -15 13
-15 21 0 9 4 14 9 11 5 -3 15 1 22 10 11 14 10 19 -10 35 -20 16 -21 19 -5 19
16 0 16 1 2 13 -9 6 -18 31 -21 55 -3 24 -12 48 -21 55 -10 7 -19 25 -20 41
-4 33 -18 49 -38 41 -9 -4 -13 -15 -10 -34 3 -23 -1 -30 -27 -41 -33 -13 -47
-44 -37 -78 4 -11 -1 -36 -10 -55 -16 -33 -13 -74 3 -64 5 3 14 -1 20 -9 17
-17 1 -26 -32 -18 -15 4 -24 12 -21 19 2 7 -7 18 -21 24 -24 11 -25 13 -10 28
15 15 15 17 0 28 -9 7 -18 32 -21 63 -3 40 -11 57 -38 84 -25 25 -33 42 -34
69 0 19 -6 44 -14 54 -13 18 -14 18 -25 -3z m144 -400 c9 -23 -3 -27 -24 -8
-11 10 -25 15 -30 11 -11 -6 -15 17 -5 28 9 9 52 -14 59 -31z m-145 -22 c0 -5
-5 -10 -11 -10 -5 0 -7 5 -4 10 3 6 8 10 11 10 2 0 4 -4 4 -10z m-58 -75 c11
-15 -34 -36 -49 -23 -15 12 -18 32 -4 23 5 -3 12 -1 16 5 7 12 27 9 37 -5z
m223 -116 c-8 -13 -32 -11 -41 3 -4 6 -3 8 4 4 6 -3 13 -2 17 4 4 6 11 8 16 4
5 -3 7 -10 4 -15z m66 -22 c-8 -8 -11 -5 -11 9 0 27 14 41 18 19 2 -9 -1 -22
-7 -28z m-63 -58 c3 -17 -23 -33 -39 -23 -5 3 -9 14 -9 25 0 15 6 20 22 17 13
-2 24 -10 26 -19z m-93 -77 c-23 -38 -47 -32 -44 12 4 48 18 61 42 38 19 -19
19 -21 2 -50z"/>
<path d="M2842 2777 c-7 -8 -12 -21 -11 -29 5 -25 -11 -53 -41 -70 -29 -17
-40 -50 -21 -63 13 -8 5 -44 -15 -66 -10 -11 -14 -19 -10 -19 4 0 -7 -15 -23
-32 -36 -39 -37 -45 -11 -78 28 -36 26 -52 -7 -44 -37 9 -43 13 -43 27 -1 12
-64 57 -81 57 -5 0 -9 5 -9 11 0 6 -7 9 -15 5 -8 -3 -15 -1 -15 3 0 18 -26 17
-45 -2 -11 -11 -15 -17 -9 -14 12 7 29 -19 25 -40 -1 -6 3 -30 8 -52 7 -32 5
-48 -9 -78 -25 -53 -40 -102 -40 -130 0 -14 -13 -36 -31 -53 -17 -15 -33 -40
-34 -55 -2 -14 -9 -32 -15 -40 -7 -8 -9 -15 -5 -15 5 0 2 -8 -6 -17 -8 -10
-21 -30 -29 -45 -7 -16 -17 -28 -22 -28 -5 0 -7 -4 -3 -9 7 -12 -29 -33 -39
-23 -4 3 -4 -1 -1 -10 13 -32 175 -158 205 -158 8 0 35 -23 59 -50 43 -48 69
-62 151 -77 14 -2 33 -11 42 -20 10 -9 18 -13 18 -9 0 4 10 -2 22 -14 32 -30
50 -25 29 9 -5 7 -14 10 -20 7 -7 -5 -11 1 -11 14 0 12 -9 24 -24 30 -13 5
-27 13 -30 19 -4 5 -18 8 -31 5 -33 -6 -122 36 -129 60 -2 10 -9 15 -15 11 -7
-4 -11 4 -11 20 0 20 -6 27 -30 31 -16 4 -32 6 -35 5 -2 0 -15 9 -27 22 -23
22 -23 22 -3 31 33 15 89 14 112 -2 20 -13 23 -13 23 1 0 22 -50 51 -85 49
-39 -1 -63 -6 -71 -15 -12 -12 -44 -8 -45 6 -5 36 3 73 17 84 9 7 19 33 22 58
5 52 20 64 58 47 21 -10 24 -9 24 8 0 11 -6 20 -14 20 -29 0 -29 23 -1 48 l29
25 16 -24 c18 -28 71 -86 73 -80 6 16 70 -25 102 -63 22 -28 60 -57 90 -72 55
-27 115 -78 115 -97 0 -8 3 -8 11 0 8 8 2 20 -23 45 -19 18 -38 41 -41 51 -4
10 -11 15 -17 12 -6 -3 -13 1 -16 9 -3 9 -10 13 -16 10 -5 -3 -20 5 -33 18
-33 33 -53 49 -62 48 -5 0 -9 10 -11 24 -3 22 -14 29 -58 41 -24 6 -64 57 -64
82 0 22 2 24 15 13 13 -11 45 -15 93 -11 21 2 13 15 -21 32 -18 9 -47 15 -64
13 -18 -2 -35 1 -38 6 -4 6 -11 8 -16 5 -16 -10 -10 28 8 47 12 14 16 35 15
83 -1 48 2 65 12 65 15 0 83 -48 109 -78 18 -20 18 -21 0 -31 -17 -10 -16 -12
10 -32 15 -11 25 -25 22 -29 -9 -15 14 -21 34 -10 13 7 22 7 26 0 3 -5 15 -10
26 -10 10 0 19 -4 19 -10 0 -5 12 -13 28 -16 29 -8 79 -50 69 -60 -7 -7 17
-34 31 -34 12 0 52 -44 52 -57 0 -14 36 -27 49 -19 5 4 17 -1 25 -10 9 -8 16
-12 16 -8 0 5 18 -10 40 -31 l40 -39 0 46 c0 40 -2 45 -19 41 -11 -3 -21 2
-24 11 -8 21 10 31 29 15 8 -7 14 -8 13 -3 -7 37 2 60 26 62 14 1 25 -2 25 -6
0 -4 16 -16 35 -26 19 -11 35 -23 35 -27 0 -4 9 -7 20 -6 24 2 28 37 5 37 -9
0 -18 7 -21 15 -3 8 -14 17 -25 20 -10 4 -19 10 -19 13 0 12 52 13 65 2 6 -5
28 -16 48 -25 32 -13 37 -13 37 -1 0 8 -7 21 -15 30 -18 17 -21 61 -4 50 7 -4
10 -1 7 7 -3 8 -12 12 -19 11 -8 -2 -29 -6 -46 -9 -30 -5 -33 -3 -33 21 0 16
-6 26 -14 26 -8 0 -17 4 -21 9 -3 5 8 9 24 9 17 -1 37 5 46 12 8 7 15 9 15 6
0 -4 7 0 16 8 20 21 9 37 -19 28 -12 -5 -28 -7 -34 -6 -7 1 -23 2 -35 3 -22 2
-23 2 -4 16 11 8 28 15 37 15 29 0 35 22 11 38 -12 8 -22 21 -22 28 0 8 -6 14
-14 14 -7 0 -20 8 -27 17 -12 15 -12 16 6 8 64 -26 96 -13 55 22 -13 11 -20
30 -20 53 0 24 -6 39 -20 48 -15 9 -20 23 -20 53 0 45 -16 83 -31 74 -5 -4 -9
3 -9 14 0 12 -9 30 -20 41 -11 11 -20 27 -20 35 0 8 -5 15 -11 15 -5 0 -8 -4
-4 -9 3 -5 1 -12 -4 -15 -4 -3 -7 -19 -5 -36 3 -24 -2 -33 -24 -47 -70 -43
-91 -85 -57 -113 21 -18 19 -47 -6 -60 -15 -9 -18 -15 -10 -24 8 -10 5 -18
-10 -32 -12 -10 -24 -18 -28 -16 -3 1 -6 -4 -6 -10 0 -7 13 -14 29 -15 48 -4
60 -11 46 -28 -13 -16 -70 -17 -70 -2 0 4 -4 6 -8 3 -13 -8 -27 6 -52 51 -13
24 -32 45 -42 49 -10 3 -18 10 -18 15 0 12 34 11 47 -2 7 -7 12 -6 17 6 3 9 0
18 -9 21 -9 4 -15 19 -15 35 0 17 -9 36 -20 46 -13 12 -20 30 -20 54 0 28 -5
38 -19 42 -16 4 -20 15 -23 53 -3 41 -5 45 -16 31z m428 -289 c0 -4 -4 -8 -9
-8 -6 0 -12 4 -15 8 -3 5 1 9 9 9 8 0 15 -4 15 -9z m-496 -17 c7 -11 -22 -23
-35 -15 -5 3 -9 9 -9 15 0 12 37 12 44 0z m-10 -122 c-8 -14 -24 -10 -24 6 0
9 6 12 15 9 8 -4 12 -10 9 -15z m226 -22 c0 -13 -43 -4 -47 10 -2 6 4 13 14
15 17 4 33 -8 33 -25z m120 -37 c0 -5 -5 -10 -11 -10 -5 0 -7 5 -4 10 3 6 8
10 11 10 2 0 4 -4 4 -10z m-113 -56 c13 -4 20 -10 17 -15 -9 -14 -41 -10 -48
6 -6 16 -2 18 31 9z m12 -75 c9 -1 21 -2 26 -4 6 -1 14 -3 19 -3 5 -1 3 -9 -4
-17 -9 -10 -17 -12 -30 -5 -9 5 -20 6 -24 3 -3 -3 -14 1 -24 10 -10 10 -22 14
-25 10 -4 -3 -7 -1 -7 5 0 7 4 12 10 12 5 0 6 8 3 17 -5 13 -1 12 17 -5 13
-12 31 -23 39 -23z m109 -91 c-5 -21 -20 -27 -40 -15 -17 11 -17 12 0 19 27
11 42 9 40 -4z"/>
<path d="M2423 2459 c-30 -9 -81 -64 -70 -75 3 -3 10 4 17 15 6 12 29 30 50
41 22 11 40 23 40 25 0 3 -1 5 -2 4 -2 0 -17 -5 -35 -10z"/>
<path d="M1190 2401 c0 -5 7 -12 16 -15 14 -5 15 -4 4 9 -14 17 -20 19 -20 6z"/>
<path d="M2326 2348 c-5 -16 -12 -28 -18 -28 -5 0 -6 -5 -3 -11 10 -15 37 27
32 49 -3 12 -6 10 -11 -10z"/>
<path d="M920 2331 c0 -11 5 -23 10 -26 6 -3 10 3 10 14 0 11 -4 23 -10 26 -5
3 -10 -3 -10 -14z"/>
<path d="M1235 2310 c10 -35 25 -49 25 -23 0 11 -7 27 -16 34 -15 12 -16 11
-9 -11z"/>
<path d="M2403 2290 c1 -11 5 -20 9 -20 4 0 8 9 8 20 0 11 -4 20 -9 20 -6 0
-9 -9 -8 -20z"/>
<path d="M2282 2256 c-7 -16 -8 -26 -1 -26 12 0 22 25 17 41 -2 6 -9 0 -16
-15z"/>
<path d="M1270 2235 c0 -15 18 -40 24 -34 3 3 -1 14 -9 25 -8 10 -14 15 -15 9z"/>
<path d="M2363 2213 c-16 -6 -17 -36 -1 -31 6 2 12 12 14 21 1 9 2 17 1 16 -1
0 -8 -3 -14 -6z"/>
<path d="M2250 2201 c0 -7 -4 -10 -9 -7 -8 5 -127 -120 -145 -152 -5 -10 -10
-18 -12 -20 -1 -2 -12 1 -23 8 -12 6 -52 12 -89 14 -65 3 -102 12 -112 27 -6
9 -150 17 -150 8 0 -14 -60 -32 -122 -35 -37 -2 -76 -8 -87 -13 -10 -6 -21 -8
-24 -5 -3 3 -13 -6 -23 -21 -19 -29 -71 -61 -92 -56 -16 3 -46 -22 -74 -62
l-20 -28 29 7 c15 4 42 15 60 25 17 10 34 15 37 12 3 -4 6 -1 6 6 0 9 5 9 20
1 15 -8 21 -6 30 9 5 11 10 27 10 37 0 10 3 14 7 11 3 -4 11 -3 17 2 6 6 24
11 38 13 15 2 30 7 34 11 13 13 33 7 44 -13 16 -31 -37 -79 -80 -74 -25 3 -31
0 -28 -14 3 -18 26 -22 71 -10 34 8 39 -18 5 -31 -13 -5 -22 -11 -20 -15 7
-20 -2 -40 -37 -77 -32 -34 -43 -41 -64 -35 -16 4 -27 14 -29 29 -3 19 -10 22
-50 25 -29 2 -48 -1 -48 -7 0 -6 3 -10 8 -10 16 3 71 -23 76 -36 6 -16 -32
-47 -46 -39 -4 3 -8 0 -8 -5 0 -6 -7 -11 -15 -11 -20 0 -107 -89 -99 -102 4
-7 10 -5 16 6 5 9 16 16 24 16 8 0 17 7 20 15 4 8 13 15 20 15 8 0 17 7 20 15
4 9 11 15 18 14 6 -1 24 3 39 9 16 7 38 12 50 12 12 1 33 7 47 15 31 18 74 20
64 3 -5 -7 -3 -8 5 -4 9 6 9 12 -3 25 -14 15 -14 19 4 34 11 9 20 24 20 34 0
9 3 13 7 10 12 -13 33 16 33 46 0 17 3 27 7 24 17 -18 33 19 33 77 0 54 3 66
26 87 14 13 31 24 37 24 7 1 25 5 40 9 18 5 32 5 39 -2 6 -6 17 -8 25 -5 8 3
24 -4 37 -16 17 -16 22 -31 21 -61 -1 -22 2 -40 5 -40 4 0 6 -12 4 -26 -1 -16
5 -35 17 -47 10 -11 19 -26 19 -32 0 -7 19 -32 43 -57 23 -25 49 -55 58 -67 9
-12 26 -23 38 -24 11 -1 21 -4 21 -7 0 -5 33 -11 70 -12 8 -1 27 -9 42 -19 14
-11 30 -19 35 -19 4 0 21 -12 37 -27 l29 -27 -6 25 c-4 13 -7 28 -7 32 0 5 -4
6 -9 2 -6 -3 -15 4 -21 15 -6 11 -15 18 -20 15 -5 -3 -12 0 -15 5 -7 11 -51
33 -70 34 -5 1 -11 11 -13 23 -3 17 0 21 12 17 9 -3 18 0 21 8 3 8 15 15 27
15 12 1 28 8 35 16 12 12 10 14 -14 11 -15 -1 -38 -2 -50 -3 -14 -1 -28 -12
-38 -31 -10 -19 -23 -30 -36 -30 -20 0 -79 53 -79 71 0 12 -50 64 -63 64 -6 0
-12 5 -14 12 -6 17 28 21 64 6 25 -10 33 -10 42 1 19 23 3 43 -36 44 -59 2
-73 10 -73 42 0 20 6 31 20 35 22 7 64 -17 53 -31 -4 -5 -1 -3 7 4 23 20 44
13 70 -23 14 -19 33 -35 43 -36 9 -1 25 -2 35 -3 11 0 25 -6 33 -12 22 -17 48
-24 54 -14 8 13 -6 40 -21 40 -8 0 -14 6 -14 14 0 9 -9 13 -25 12 -14 -2 -40
8 -60 22 -36 26 -46 52 -20 52 9 0 20 10 25 23 5 12 9 18 9 13 2 -22 31 20 31
45 0 18 7 32 20 39 11 6 20 17 20 25 0 8 6 15 14 15 17 0 31 18 22 27 -3 4 -6
1 -6 -6z"/>
<path d="M1310 2194 c0 -5 8 -14 19 -21 10 -6 21 -24 24 -40 7 -31 60 -96 71
-86 3 3 6 1 6 -5 0 -6 6 -9 14 -6 18 7 9 34 -10 34 -8 0 -14 6 -14 14 0 7 -8
16 -18 19 -11 2 -22 17 -25 36 -4 17 -12 31 -18 31 -7 0 -21 7 -31 17 -10 9
-18 12 -18 7z"/>
<path d="M2338 2162 c-36 -16 -60 -52 -32 -48 17 3 29 14 29 29 0 7 10 13 23
15 12 2 22 8 22 13 0 11 3 12 -42 -9z"/>
<path d="M1180 2158 c0 -5 9 -12 20 -16 12 -4 30 -21 40 -37 l20 -30 0 30 c0
17 -4 36 -9 44 -10 15 -71 23 -71 9z"/>
<path d="M2286 2082 c2 -2 -1 -13 -7 -23 -6 -11 -6 -19 0 -19 13 0 23 32 13
40 -5 4 -7 5 -6 2z"/>
<path d="M2878 2057 c-57 -31 -50 -43 12 -19 8 3 19 6 24 6 5 1 10 9 12 19 3
21 -1 21 -48 -6z"/>
<path d="M635 2060 c-3 -5 -1 -10 4 -10 21 0 26 -2 41 -13 8 -6 6 -2 -4 11
-21 24 -32 27 -41 12z"/>
<path d="M1270 2046 c0 -2 7 -17 15 -32 16 -30 19 -25 9 14 -5 18 -24 33 -24
18z"/>
<path d="M1006 2015 c-3 -8 -1 -15 4 -15 6 0 10 7 10 15 0 8 -2 15 -4 15 -2 0
-6 -7 -10 -15z"/>
<path d="M1136 2008 c3 -13 7 -30 9 -38 2 -8 4 -22 4 -31 1 -9 10 -26 21 -39
25 -29 25 -42 0 -71 -20 -24 -20 -24 -26 -3 -4 16 -13 21 -37 19 -18 -1 -40 2
-49 7 -12 6 -21 2 -30 -11 -8 -10 -22 -17 -35 -15 -12 2 -24 -3 -27 -13 -9
-21 3 -31 14 -13 6 8 10 12 10 7 0 -4 13 -1 30 8 16 8 32 16 35 16 11 0 65
-36 65 -44 0 -4 -20 -16 -44 -26 -44 -20 -86 -66 -86 -96 0 -14 3 -15 15 -5 8
7 15 21 15 32 0 14 5 18 15 15 8 -4 17 -2 20 4 4 5 12 8 18 7 17 -4 107 63
107 79 0 8 4 12 9 9 4 -3 23 8 41 24 31 28 33 50 4 50 -9 0 -14 10 -14 29 0
20 -6 32 -19 36 -10 3 -21 18 -24 35 -4 16 -15 34 -26 40 -17 9 -19 7 -15 -12z"/>
<path d="M2511 2016 c2 -2 15 -9 29 -16 23 -12 24 -12 11 3 -7 10 -20 17 -29
17 -8 0 -13 -2 -11 -4z"/>
<path d="M2236 1994 c-11 -27 -7 -37 9 -24 16 14 20 40 6 40 -5 0 -12 -7 -15
-16z"/>
<path d="M1805 1850 c3 -5 8 -10 11 -10 2 0 4 5 4 10 0 6 -5 10 -11 10 -5 0
-7 -4 -4 -10z"/>
<path d="M1755 1796 c1 -12 7 -30 13 -41 10 -18 11 -15 12 21 0 26 -4 41 -13
41 -7 0 -12 -10 -12 -21z"/>
<path d="M774 1798 c-10 -15 1 -19 27 -9 13 5 22 10 19 11 -25 7 -41 7 -46 -2z"/>
<path d="M2739 1798 c-11 -8 -11 -9 2 -5 9 3 22 0 28 -6 8 -8 11 -8 11 0 0 16
-25 23 -41 11z"/>
<path d="M1844 1784 c1 -9 -6 -33 -16 -52 -27 -53 -23 -87 8 -75 8 3 14 12 14
20 0 8 -4 12 -9 8 -5 -3 -12 -1 -16 5 -3 5 1 10 9 10 9 0 16 1 17 3 7 26 8 97
1 97 -6 0 -9 -7 -8 -16z"/>
<path d="M1709 1735 c-3 -2 -3 -20 -1 -40 5 -43 32 -49 32 -6 0 26 -21 57 -31
46z"/>
<path d="M1129 1664 c-17 -21 -4 -29 21 -11 17 12 18 16 6 20 -8 3 -20 -1 -27
-9z"/>
<path d="M2027 1641 c34 -33 49 -70 40 -95 -7 -18 15 -80 36 -104 9 -10 20
-33 23 -50 5 -25 12 -32 30 -32 13 0 24 6 24 13 0 18 -16 39 -26 35 -5 -1 -12
19 -17 47 -5 27 -15 54 -23 58 -16 9 -20 83 -3 89 5 2 -1 13 -15 26 -14 12
-26 19 -26 16 0 -3 -8 2 -17 12 -12 11 -18 13 -21 5 -3 -9 -8 -9 -20 0 -10 7
-2 -2 15 -20z"/>
<path d="M2409 1657 c15 -19 41 -23 41 -7 0 6 -4 10 -9 10 -5 0 -18 3 -28 7
-16 6 -16 5 -4 -10z"/>
<path d="M956 1653 c-11 -3 -26 -11 -34 -19 -7 -8 -25 -12 -39 -9 -14 2 -35
-1 -47 -8 -12 -6 -25 -11 -29 -12 -17 0 -85 -78 -80 -91 4 -11 8 -11 18 -1 27
26 55 47 55 41 0 -3 7 2 16 10 8 9 20 14 25 11 5 -4 9 -2 9 4 0 5 20 13 45 17
25 3 45 10 45 15 0 5 9 9 20 9 13 0 20 7 20 20 0 11 -1 19 -2 19 -2 -1 -12 -4
-22 -6z"/>
<path d="M1475 1642 c2 -2 -3 -11 -11 -19 -8 -9 -13 -22 -10 -29 3 -8 2 -14
-2 -14 -4 0 -7 -12 -7 -27 1 -16 -3 -34 -8 -40 -5 -7 -7 -13 -3 -13 3 0 1 -11
-4 -24 -5 -13 -6 -27 -3 -30 10 -10 33 15 33 35 0 10 7 22 16 27 11 6 15 17
11 31 -3 11 -2 21 1 21 4 0 8 20 10 43 2 34 -1 44 -13 44 -8 0 -13 -2 -10 -5z"/>
<path d="M1645 1620 c3 -5 8 -10 11 -10 2 0 4 5 4 10 0 6 -5 10 -11 10 -5 0
-7 -4 -4 -10z"/>
<path d="M2146 1602 c-2 -4 4 -13 15 -20 21 -13 22 -12 13 12 -7 17 -20 21
-28 8z"/>
<path d="M1355 1569 c-4 -6 -5 -13 -2 -16 7 -7 27 6 27 18 0 12 -17 12 -25 -2z"/>
<path d="M1712 1543 c-12 -15 -22 -34 -22 -43 -1 -8 -14 -31 -30 -50 -33 -38
-38 -52 -15 -44 8 4 15 15 15 25 0 10 6 19 14 19 15 0 26 21 26 51 0 10 6 19
14 19 7 0 16 10 19 22 9 31 4 32 -21 1z"/>
<path d="M1833 1530 c1 -11 7 -22 13 -24 8 -3 12 3 11 14 -1 11 -7 22 -13 24
-8 3 -12 -3 -11 -14z"/>
<path d="M1322 1519 c-7 -11 -11 -24 -8 -27 10 -9 28 15 24 32 -2 14 -5 13
-16 -5z"/>
<path d="M1211 1454 c6 -8 15 -11 20 -8 5 3 9 0 9 -6 0 -6 4 -8 10 -5 5 3 19
1 30 -5 17 -9 20 -8 20 11 0 16 -5 20 -20 16 -11 -3 -22 -2 -25 3 -2 4 -16 8
-30 8 -20 0 -23 -3 -14 -14z"/>
<path d="M1872 1458 c3 -14 88 -98 101 -98 24 0 -32 55 -58 58 -5 0 -12 11
-15 23 -6 24 -33 41 -28 17z"/>
<path d="M2318 1465 c-3 -3 -21 -6 -41 -7 -25 -1 -34 -5 -30 -14 4 -11 39 -13
51 -3 3 2 19 6 32 8 12 1 14 21 2 21 -5 0 -11 -2 -14 -5z"/>
<path d="M1388 1403 c-16 -16 -28 -35 -28 -41 0 -8 9 -10 28 -6 35 9 34 7 30
44 l-3 32 -27 -29z"/>
<path d="M1590 1385 c0 -9 6 -12 15 -9 8 4 15 10 15 15 0 5 -7 9 -15 9 -8 0
-15 -7 -15 -15z"/>
<path d="M432 1210 l-24 -5 25 -26 c15 -17 40 -78 68 -164 33 -105 48 -139 64
-145 28 -11 55 6 55 35 0 14 3 24 8 24 16 -3 32 1 31 9 -1 4 -1 19 0 35 2 47
26 30 41 -30 17 -66 44 -89 85 -69 24 11 35 42 35 103 0 19 4 32 9 29 12 -8
31 49 31 95 0 21 6 42 14 46 7 4 18 18 24 29 12 23 36 26 67 7 18 -10 20 -23
21 -135 2 -114 0 -124 -19 -140 -12 -9 -18 -20 -15 -24 12 -11 170 -6 182 6 7
7 4 10 -10 10 -12 0 -24 3 -28 8 -4 4 -13 7 -19 7 -8 0 -13 39 -15 128 -1 70
1 126 5 125 4 -1 18 3 29 10 12 6 24 8 28 5 3 -3 6 1 6 10 0 10 -8 17 -20 18
-70 3 -107 2 -117 -4 -6 -4 -14 -3 -18 2 -3 6 -15 7 -28 2 -12 -5 -31 -5 -42
-2 -26 9 -97 7 -113 -2 -18 -12 -15 -25 9 -32 16 -6 20 -13 15 -33 -3 -15 -10
-51 -15 -81 -12 -63 -20 -74 -42 -58 -11 8 -18 33 -21 76 -3 42 -10 68 -20 75
-9 6 -17 20 -19 30 -5 23 -29 28 -52 11 -16 -12 -18 -48 -4 -72 3 -5 0 -19 -6
-33 -12 -29 -13 -34 -20 -77 -11 -67 -24 -69 -31 -4 -9 76 -14 91 -32 91 -10
0 -14 13 -14 41 0 22 4 38 9 35 10 -7 37 22 28 30 -8 8 -117 11 -145 4z"/>
<path d="M1195 1212 c-33 -6 -41 -21 -20 -35 14 -11 19 -30 21 -88 2 -41 4
-93 5 -116 2 -36 -2 -47 -27 -68 l-29 -25 45 -1 c47 -1 184 0 235 0 30 1 30 1
30 57 -1 38 -5 58 -15 63 -29 14 -45 6 -56 -28 -11 -34 -31 -48 -69 -47 -19 1
-20 9 -23 111 -3 115 2 160 18 150 5 -3 11 -1 15 5 9 15 -85 31 -130 22z"/>
<path d="M1503 1212 c-28 -4 -29 -17 -5 -37 15 -13 17 -32 16 -137 -1 -102 -4
-123 -18 -134 -24 -17 -10 -22 64 -24 119 -4 149 -1 168 18 9 9 24 17 32 17
10 0 17 13 20 35 3 22 10 35 20 35 12 0 15 14 16 64 1 53 -1 64 -16 68 -10 3
-21 18 -24 35 -3 17 -9 28 -13 25 -3 -4 -15 1 -25 10 -11 9 -27 19 -36 21 -23
5 -172 8 -199 4z m184 -69 c25 -26 38 -65 30 -88 -4 -8 -2 -17 2 -20 26 -15
-33 -109 -70 -112 -28 -2 -71 27 -51 34 16 6 15 28 -3 43 -19 16 -19 44 0 60
18 15 16 56 -3 53 -22 -5 -13 21 15 43 31 24 48 21 80 -13z"/>
<path d="M1992 1202 c-2 -7 5 -20 17 -28 19 -14 21 -24 21 -133 0 -112 -1
-119 -22 -134 -13 -8 -20 -18 -16 -22 3 -4 163 -7 355 -7 289 0 348 2 348 13
0 8 -8 13 -17 13 -10 -1 -18 2 -18 6 0 5 -9 12 -20 15 -15 5 -20 15 -20 43 l0
38 58 -1 57 0 3 32 c3 30 1 32 -20 25 -25 -8 -42 -8 -75 3 -19 6 -23 15 -23
48 0 22 3 38 6 35 3 -4 17 0 31 7 32 17 60 5 73 -31 6 -14 17 -24 30 -24 18 0
20 6 20 58 l0 57 -113 -1 c-155 -2 -154 -2 -154 -18 0 -8 5 -14 10 -13 23 4
35 -49 35 -147 0 -56 -3 -106 -5 -113 -3 -6 -17 -16 -33 -21 -22 -8 -36 -6
-62 7 l-33 18 -3 108 c-2 98 -1 110 18 127 22 21 27 47 8 49 -16 1 -120 1
-130 0 -15 -2 -8 -26 10 -37 16 -10 18 -26 16 -130 -1 -66 -3 -122 -3 -125 -2
-17 -35 -17 -56 -1 -25 18 -34 54 -12 49 21 -4 13 25 -10 34 -25 9 -37 -2 -46
-42 -5 -21 -14 -28 -43 -32 -65 -11 -74 3 -74 121 0 57 4 101 8 98 5 -3 15 6
22 20 11 19 11 27 2 36 -17 17 -133 17 -140 0z"/>
<path d="M2856 1205 c-13 -10 -13 -12 1 -21 13 -8 17 -34 20 -132 3 -113 2
-123 -17 -142 -12 -12 -19 -24 -17 -26 3 -3 62 -6 131 -7 l126 -2 0 58 c0 64
-12 73 -38 28 -16 -28 -63 -48 -83 -35 -14 8 -11 74 5 89 7 8 15 12 18 10 2
-2 16 -6 31 -9 26 -5 28 -3 25 27 -2 23 -7 31 -18 28 -16 -4 -37 -5 -57 -2 -8
0 -13 17 -13 45 0 34 4 45 18 48 26 6 59 -11 71 -39 6 -13 17 -23 24 -20 13 4
23 107 10 108 -75 6 -225 2 -237 -6z"/>
<path d="M1479 814 c-1 -2 -3 -13 -4 -24 -1 -11 -3 -24 -4 -29 -2 -15 -50 13
-55 31 -9 37 -27 18 -24 -24 3 -43 3 -43 43 -43 22 0 45 -3 50 -6 12 -8 52 -5
60 3 4 3 20 4 36 1 22 -3 29 0 29 12 0 8 -7 18 -15 21 -14 6 -13 8 2 20 16 12
16 15 3 24 -19 13 -27 13 -35 0 -5 -7 -11 -8 -19 -1 -12 11 -65 23 -67 15z
m89 -47 c-4 -29 -23 -32 -26 -4 -1 15 4 24 14 24 9 0 14 -8 12 -20z"/>
<path d="M1878 808 c-6 -18 20 -66 42 -78 27 -14 99 -18 103 -6 3 6 -1 27 -7
45 -8 24 -18 35 -35 38 -17 2 -22 -1 -18 -11 3 -8 -1 -22 -8 -33 -8 -10 -15
-13 -15 -6 0 6 -9 15 -20 18 -11 3 -20 13 -20 20 0 18 -17 28 -22 13z"/>
<path d="M1688 800 c-6 -13 -5 -56 0 -82 3 -11 14 -10 32 2 13 9 13 12 -2 23
-9 7 -18 26 -20 42 -3 20 -6 25 -10 15z"/>
<path d="M1798 785 c-3 -13 0 -34 6 -46 14 -29 46 -34 46 -8 0 10 -6 18 -12
17 -8 -2 -14 10 -16 30 -4 38 -18 42 -24 7z"/>
<path d="M2091 793 c2 -39 15 -66 33 -69 15 -2 17 2 12 28 -10 48 -47 82 -45
41z"/>
</g>
</svg>
